<?xml version="1.0" encoding="UTF-8" standalone="no"?>
<!-- Created with Inkscape (http://www.inkscape.org/) -->

<svg
   width="6.4682631in"
   height="1.1710091in"
   viewBox="0 0 164.29388 29.74363"
   version="1.1"
   id="svg1"
   xml:space="preserve"
   xmlns="http://www.w3.org/2000/svg"
   xmlns:svg="http://www.w3.org/2000/svg"><defs
     id="defs1" /><ellipse
     style="display:inline;fill:#34a02c;fill-opacity:1;stroke:none;stroke-width:2.68684;stroke-dasharray:none;stroke-opacity:1"
     id="path3"
     cx="90.03743"
     cy="17.662586"
     rx="3.0747285"
     ry="4.3231125" /><path
     style="font-weight:900;font-size:25.4px;font-family:Roboto;-inkscape-font-specification:'Roboto Heavy';display:inline;fill:#ffffff;fill-opacity:1;stroke-width:0.264583"
     d="m 4.3532208,18.333479 v 6.12675 H -5.8889739e-7 V 6.4024205 H 7.2057598 c 1.380795,0 2.600359,0.256315 3.6586922,0.768946 1.066601,0.504362 1.88929,1.227832 2.468066,2.17041 0.587045,0.9343085 0.880567,1.9967765 0.880567,3.1874025 0,1.76113 -0.63252,3.17087 -1.897559,4.2292 -1.256771,1.05007 -2.9848312,1.5751 -5.1841802,1.5751 z m 0,-3.36104 h 2.852539 c 0.84336,0 1.484148,-0.21084 1.922364,-0.63252 0.446484,-0.42168 0.669726,-1.01699 0.669726,-1.78594 0,-0.84336 -0.227376,-1.517216 -0.682129,-2.021578 -0.454752,-0.504362 -1.074869,-0.7606765 -1.860351,-0.7689455 h -2.902149 z m 19.4096692,9.48779 c -0.148828,-0.27285 -0.28112,-0.67385 -0.396875,-1.20302 -0.768945,0.96738 -1.843815,1.45107 -3.22461,1.45107 -1.265039,0 -2.339908,-0.38034 -3.224609,-1.14102 -0.884701,-0.76894 -1.327051,-1.73219 -1.327051,-2.88974 0,-1.45521 0.537435,-2.55488 1.612305,-3.29902 1.07487,-0.74415 2.637565,-1.11622 4.688086,-1.11622 h 1.289844 v -0.70693 c 0,-1.23197 -0.533301,-1.84795 -1.599903,-1.84795 -0.992187,0 -1.488281,0.48783 -1.488281,1.46348 h -4.17959 c 0,-1.29811 0.549837,-2.35231 1.649512,-3.1626 1.107943,-0.810286 2.517676,-1.215429 4.229199,-1.215429 1.711523,0 3.063379,0.417546 4.055567,1.252639 0.992187,0.83509 1.500683,1.98024 1.525488,3.43545 v 5.94072 c 0.01653,1.23197 0.206703,2.17454 0.570508,2.82773 v 0.21084 z m -2.616895,-2.72851 c 0.520899,0 0.950847,-0.11162 1.289844,-0.33487 0.347265,-0.22324 0.595312,-0.47542 0.744141,-0.75654 v -2.1456 h -1.21543 c -1.455208,0 -2.182812,0.65319 -2.182812,1.95957 0,0.38033 0.128157,0.69039 0.384472,0.93017 0.256315,0.23151 0.58291,0.34727 0.979785,0.34727 z m 15.564942,-1.0418 c 0,-0.35553 -0.186035,-0.64079 -0.558105,-0.85576 -0.372071,-0.21497 -1.079004,-0.43822 -2.120801,-0.66973 -1.041797,-0.23151 -1.901693,-0.5333 -2.579688,-0.90537 -0.677995,-0.38034 -1.194759,-0.83923 -1.550293,-1.37666 -0.355533,-0.53743 -0.5333,-1.15342 -0.5333,-1.84795 0,-1.23197 0.508496,-2.24482 1.525488,-3.03857 1.016992,-0.802019 2.348177,-1.203029 3.993555,-1.203029 1.769401,0 3.191536,0.40101 4.266406,1.203029 1.074869,0.80202 1.612304,1.85622 1.612304,3.1626 h -4.191992 c 0,-1.07487 -0.566374,-1.61231 -1.699121,-1.61231 -0.438216,0 -0.806152,0.12402 -1.103808,0.37207 -0.297657,0.23978 -0.446485,0.54157 -0.446485,0.90537 0,0.37207 0.181901,0.67386 0.545703,0.90537 0.363802,0.23151 0.942578,0.42168 1.736328,0.57051 0.802019,0.14883 1.504818,0.32659 2.108399,0.5333 2.017448,0.69453 3.026172,1.9389 3.026172,3.73311 0,1.22369 -0.545703,2.22001 -1.63711,2.98896 -1.083138,0.76895 -2.488737,1.15342 -4.216796,1.15342 -1.149284,0 -2.174545,-0.20671 -3.075782,-0.62012 -0.901237,-0.41341 -1.604036,-0.97565 -2.108398,-1.68672 -0.504362,-0.71107 -0.756543,-1.45934 -0.756543,-2.24482 h 3.906738 c 0.01654,0.62012 0.223246,1.07487 0.620117,1.36426 0.396875,0.28112 0.905372,0.42168 1.525489,0.42168 0.570507,0 0.996321,-0.11576 1.277441,-0.34727 0.289388,-0.23151 0.434082,-0.5333 0.434082,-0.90537 z m 13.010055,0 c 0,-0.35553 -0.18603,-0.64079 -0.5581,-0.85576 -0.37207,-0.21497 -1.07901,-0.43822 -2.1208,-0.66973 -1.0418,-0.23151 -1.9017,-0.5333 -2.57969,-0.90537 -0.67799,-0.38034 -1.19476,-0.83923 -1.55029,-1.37666 -0.35553,-0.53743 -0.5333,-1.15342 -0.5333,-1.84795 0,-1.23197 0.5085,-2.24482 1.52549,-3.03857 1.01699,-0.802019 2.34817,-1.203029 3.99355,-1.203029 1.7694,0 3.19154,0.40101 4.26641,1.203029 1.07487,0.80202 1.6123,1.85622 1.6123,3.1626 h -4.19199 c 0,-1.07487 -0.56637,-1.61231 -1.69912,-1.61231 -0.43822,0 -0.80616,0.12402 -1.10381,0.37207 -0.29766,0.23978 -0.44649,0.54157 -0.44649,0.90537 0,0.37207 0.1819,0.67386 0.54571,0.90537 0.3638,0.23151 0.94258,0.42168 1.73633,0.57051 0.80201,0.14883 1.50481,0.32659 2.10839,0.5333 2.01745,0.69453 3.02618,1.9389 3.02618,3.73311 0,1.22369 -0.5457,2.22001 -1.63711,2.98896 -1.08314,0.76895 -2.48874,1.15342 -4.2168,1.15342 -1.14929,0 -2.17455,-0.20671 -3.07578,-0.62012 -0.90124,-0.41341 -1.60404,-0.97565 -2.1084,-1.68672 -0.50436,-0.71107 -0.75654,-1.45934 -0.75654,-2.24482 h 3.90674 c 0.0165,0.62012 0.22324,1.07487 0.62011,1.36426 0.39688,0.28112 0.90538,0.42168 1.52549,0.42168 0.57051,0 0.99632,-0.11576 1.27744,-0.34727 0.28939,-0.23151 0.43408,-0.5333 0.43408,-0.90537 z m 12.47676,4.01836 c -2.05879,0 -3.72484,-0.61185 -4.99815,-1.83555 -1.27331,-1.23197 -1.90996,-2.83187 -1.90996,-4.7997 v -0.34727 c 0,-1.37253 0.25218,-2.58382 0.75655,-3.63389 0.51263,-1.05006 1.25677,-1.86035 2.23242,-2.43086 0.97565,-0.578773 2.1332,-0.868159 3.47265,-0.868159 1.88516,0 3.37344,0.587043 4.46485,1.761129 1.09141,1.16582 1.63711,2.79466 1.63711,4.88653 v 1.6247 h -8.30957 c 0.14883,0.75241 0.47542,1.34359 0.97978,1.77354 0.50437,0.42995 1.15756,0.64492 1.95957,0.64492 1.32292,0 2.35645,-0.46302 3.10059,-1.38906 l 1.90996,2.25723 c -0.5209,0.71933 -1.26091,1.29397 -2.22002,1.72392 -0.95085,0.42168 -1.97611,0.63252 -3.07578,0.63252 z m -0.47129,-10.69082 c -1.2237,0 -1.9513,0.81029 -2.18281,2.43086 h 4.21679 v -0.32246 c 0.0165,-0.66973 -0.15296,-1.18649 -0.50849,-1.55029 -0.35553,-0.37207 -0.86403,-0.55811 -1.52549,-0.55811 z m 11.6458,-2.976562 0.13643,1.575102 c 0.92604,-1.215433 2.20348,-1.823149 3.83232,-1.823149 1.39733,0 2.43913,0.417546 3.12539,1.252639 0.69453,0.83509 1.0542,2.09186 1.07901,3.77031 v 8.64443 h -4.192 v -8.4708 c 0,-0.67799 -0.13642,-1.17409 -0.40927,-1.48828 -0.27285,-0.32246 -0.76895,-0.48369 -1.48829,-0.48369 -0.81855,0 -1.42627,0.32246 -1.82314,0.96738 v 9.47539 h -4.17959 V 11.040897 Z m 9.99629,6.610452 c 0,-1.35599 0.22324,-2.55489 0.66973,-3.59668 0.44648,-1.0418 1.08727,-1.84382 1.92236,-2.40606 0.83509,-0.570506 1.80661,-0.855759 2.91455,-0.855759 1.39733,0 2.48874,0.47129 3.27422,1.413869 l 0.14883,-1.165822 h 3.795115 v 12.910842 c 0,1.18235 -0.27698,2.20761 -0.83095,3.07578 -0.54571,0.87643 -1.33946,1.54616 -2.38125,2.00918 -1.041805,0.47129 -2.248965,0.70693 -3.621495,0.70693 -0.98392,0 -1.9389,-0.18603 -2.86494,-0.5581 -0.91777,-0.37207 -1.62057,-0.85577 -2.1084,-1.45108 l 1.74873,-2.45566 c 0.77721,0.91777 1.80248,1.37666 3.07579,1.37666 1.85208,0 2.77812,-0.95085 2.77812,-2.85254 v -0.42168 c -0.80202,0.8847 -1.81488,1.32705 -3.03857,1.32705 -1.63711,0 -2.96003,-0.62425 -3.96875,-1.87275 -1.00873,-1.25677 -1.51309,-2.93523 -1.51309,-5.03536 z m 4.19199,0.26045 c 0,1.09967 0.20671,1.97197 0.62012,2.61689 0.41341,0.63665 0.99219,0.95498 1.73633,0.95498 0.90123,0 1.55856,-0.30179 1.97197,-0.90537 v -5.64307 c -0.40514,-0.61185 -1.0542,-0.91777 -1.94717,-0.91777 -0.74414,0 -1.32705,0.33486 -1.74873,1.00459 -0.42168,0.66146 -0.63252,1.62471 -0.63252,2.88975 z m 17.400498,6.79648 c -2.05879,0 -3.72483,-0.61185 -4.998143,-1.83555 -1.27331,-1.23197 -1.90996,-2.83187 -1.90996,-4.7997 v -0.34727 c 0,-1.37253 0.25218,-2.58382 0.75654,-3.63389 0.51263,-1.05006 1.256773,-1.86035 2.232423,-2.43086 0.97565,-0.578773 2.13321,-0.868159 3.47266,-0.868159 1.88515,0 3.37343,0.587043 4.46484,1.761129 1.09141,1.16582 1.63711,2.79466 1.63711,4.88653 v 1.6247 h -8.30957 c 0.14883,0.75241 0.47542,1.34359 0.97979,1.77354 0.50436,0.42995 1.15755,0.64492 1.95957,0.64492 1.32291,0 2.35644,-0.46302 3.10058,-1.38906 l 1.90996,2.25723 c -0.52089,0.71933 -1.2609,1.29397 -2.22002,1.72392 -0.95085,0.42168 -1.97611,0.63252 -3.07578,0.63252 z m -0.47129,-10.69082 c -1.22369,0 -1.9513,0.81029 -2.18281,2.43086 h 4.2168 v -0.32246 c 0.0165,-0.66973 -0.15297,-1.18649 -0.5085,-1.55029 -0.35553,-0.37207 -0.86403,-0.55811 -1.52549,-0.55811 z m 15.92461,0.80615 -1.37666,-0.0992 c -1.31465,0 -2.15801,0.41341 -2.53008,1.24024 v 8.4956 h -4.17959 V 11.040897 h 3.91914 l 0.13643,1.723922 c 0.7028,-1.314646 1.68259,-1.971969 2.93936,-1.971969 0.44648,0 0.83509,0.04961 1.16582,0.148828 z m 11.01329,4.83692 c 0,-0.63665 -0.22738,-1.13275 -0.68213,-1.48828 -0.44649,-0.35554 -1.2361,-0.72348 -2.36885,-1.10381 -1.13275,-0.38034 -2.05879,-0.74828 -2.77812,-1.10381 -2.33991,-1.14929 -3.50987,-2.72852 -3.50987,-4.737697 0,-1.000456 0.28939,-1.8810215 0.86817,-2.6416985 0.58704,-0.768945 1.41386,-1.364258 2.48046,-1.785938 1.06661,-0.429948 2.2655,-0.644923 3.59668,-0.644923 1.29811,0 2.4598,0.231512 3.48506,0.694533 1.03353,0.463021 1.83555,1.124479 2.40606,1.984375 0.57051,0.851627 0.85576,1.8272765 0.85576,2.9269485 h -4.34082 c 0,-0.73587 -0.22738,-1.306377 -0.68213,-1.71152 -0.44649,-0.4051425 -1.0542,-0.6077145 -1.82314,-0.6077145 -0.77721,0 -1.3932,0.173633 -1.84795,0.520899 -0.44649,0.3389965 -0.66973,0.7730785 -0.66973,1.3022455 0,0.46302 0.24805,0.8847 0.74414,1.26504 0.49609,0.37207 1.36839,0.76067 2.61689,1.16582 1.24851,0.39687 2.27377,0.82682 3.07579,1.28984 1.9513,1.12448 2.92695,2.67477 2.92695,4.65088 0,1.57923 -0.59531,2.81947 -1.78594,3.7207 -1.19063,0.90124 -2.8236,1.35186 -4.89892,1.35186 -1.46348,0 -2.79053,-0.26045 -3.98116,-0.78135 -1.18235,-0.52917 -2.07532,-1.2485 -2.6789,-2.15801 -0.59531,-0.91777 -0.89297,-1.97197 -0.89297,-3.16259 h 4.36562 c 0,0.96738 0.24805,1.68258 0.74414,2.1456 0.50437,0.45475 1.31879,0.68213 2.44327,0.68213 0.71933,0 1.28571,-0.15296 1.69912,-0.45889 0.42168,-0.31419 0.63252,-0.7524 0.63252,-1.31464 z m 10.80243,4.7997 h -4.19199 V 11.040897 h 4.19199 z M 137.79004,7.5806435 c 0,-0.595313 0.21497,-1.083138 0.64492,-1.463478 0.42995,-0.3803375 0.98805,-0.5705065 1.67432,-0.5705065 0.68626,0 1.24436,0.190169 1.67431,0.5705065 0.42995,0.38034 0.64493,0.868165 0.64493,1.463478 0,0.595313 -0.21498,1.083138 -0.64493,1.463476 -0.42995,0.380339 -0.98805,0.570508 -1.67431,0.570508 -0.68627,0 -1.24437,-0.190169 -1.67432,-0.570508 -0.42995,-0.380338 -0.64492,-0.868163 -0.64492,-1.463476 z m 10.96368,3.4602535 0.13643,1.575102 c 0.95085,-1.215433 2.22829,-1.823149 3.83232,-1.823149 1.69499,0 2.84014,0.67386 3.43545,2.021579 0.90951,-1.347719 2.22416,-2.021579 3.94395,-2.021579 2.72025,0 4.11758,1.645379 4.19199,4.936129 v 8.73125 h -4.19199 v -8.4708 c 0,-0.68626 -0.11576,-1.18649 -0.34727,-1.50068 -0.23151,-0.31419 -0.65319,-0.47129 -1.26504,-0.47129 -0.82682,0 -1.4428,0.36794 -1.84795,1.10381 l 0.0124,0.17363 v 9.16533 h -4.19199 v -8.44599 c 0,-0.7028 -0.11162,-1.2113 -0.33486,-1.52549 -0.22325,-0.31419 -0.64906,-0.47129 -1.27744,-0.47129 -0.80202,0 -1.41387,0.36794 -1.83555,1.10381 v 9.33896 h -4.17959 V 11.040897 Z"
     id="path5"
     aria-label="PassengerSim" /><g
     id="layer1"
     style="display:inline"
     transform="translate(-6.9051332,-3.9107985)"><path
       style="display:inline;fill:none;stroke:#34a02c;stroke-width:1.265;stroke-dasharray:none;stroke-opacity:1"
       d="M 19.931273,15.609328 C 41.529674,0.06140243 72.628775,1.0947244 96.845375,19.804618"
       id="path2" /><path
       style="fill:none;stroke:#34a02c;stroke-width:1.265;stroke-dasharray:none;stroke-opacity:1"
       d="m 56.020705,21.808438 c 11.29923,-5.24876 22.21612,-7.336395 40.5029,0.13804"
       id="path2-0" /><path
       style="fill:none;stroke:#34a02c;stroke-width:1.265;stroke-dasharray:none;stroke-opacity:1"
       d="M 32.830576,16.953138 C 46.418509,7.7511705 76.581335,7.3280495 96.844715,21.148428"
       id="path2-05" /><path
       style="fill:none;stroke:#34a02c;stroke-width:1.265;stroke-dasharray:none;stroke-opacity:1"
       d="m 97.052275,22.141698 c 9.634725,-5.24877 34.804005,-3.59125 42.167435,2.21868"
       id="path2-06" /><path
       style="fill:none;stroke:#34a02c;stroke-width:1.265;stroke-dasharray:none;stroke-opacity:1"
       d="M 96.936505,21.241678 C 108.13172,13.392118 135.79776,4.7504635 146.69827,11.288616"
       id="path2-4" /><path
       style="fill:none;stroke:#34a02c;stroke-width:1.265;stroke-dasharray:none;stroke-opacity:1"
       d="M 96.621925,20.699448 C 111.87438,4.4233035 148.48718,-3.4901265 166.14977,16.052028"
       id="path2-8" /></g><path
     style="font-weight:900;font-size:25.4px;font-family:Roboto;-inkscape-font-specification:'Roboto Heavy';display:inline;fill:#ffffff;fill-opacity:1;stroke-width:0.264583"
     d="m 4.3532208,18.333479 v 6.12675 H -5.8889739e-7 V 6.4024205 H 7.2057598 c 1.380795,0 2.600359,0.256315 3.6586922,0.768946 1.066601,0.504362 1.88929,1.227832 2.468066,2.17041 0.587045,0.9343085 0.880567,1.9967765 0.880567,3.1874025 0,1.76113 -0.63252,3.17087 -1.897559,4.2292 -1.256771,1.05007 -2.9848312,1.5751 -5.1841802,1.5751 z m 0,-3.36104 h 2.852539 c 0.84336,0 1.484148,-0.21084 1.922364,-0.63252 0.446484,-0.42168 0.669726,-1.01699 0.669726,-1.78594 0,-0.84336 -0.227376,-1.517216 -0.682129,-2.021578 -0.454752,-0.504362 -1.074869,-0.7606765 -1.860351,-0.7689455 h -2.902149 z m 19.4096692,9.48779 c -0.148828,-0.27285 -0.28112,-0.67385 -0.396875,-1.20302 -0.768945,0.96738 -1.843815,1.45107 -3.22461,1.45107 -1.265039,0 -2.339908,-0.38034 -3.224609,-1.14102 -0.884701,-0.76894 -1.327051,-1.73219 -1.327051,-2.88974 0,-1.45521 0.537435,-2.55488 1.612305,-3.29902 1.07487,-0.74415 2.637565,-1.11622 4.688086,-1.11622 h 1.289844 v -0.70693 c 0,-1.23197 -0.533301,-1.84795 -1.599903,-1.84795 -0.992187,0 -1.488281,0.48783 -1.488281,1.46348 h -4.17959 c 0,-1.29811 0.549837,-2.35231 1.649512,-3.1626 1.107943,-0.810286 2.517676,-1.215429 4.229199,-1.215429 1.711523,0 3.063379,0.417546 4.055567,1.252639 0.992187,0.83509 1.500683,1.98024 1.525488,3.43545 v 5.94072 c 0.01653,1.23197 0.206703,2.17454 0.570508,2.82773 v 0.21084 z m -2.616895,-2.72851 c 0.520899,0 0.950847,-0.11162 1.289844,-0.33487 0.347265,-0.22324 0.595312,-0.47542 0.744141,-0.75654 v -2.1456 h -1.21543 c -1.455208,0 -2.182812,0.65319 -2.182812,1.95957 0,0.38033 0.128157,0.69039 0.384472,0.93017 0.256315,0.23151 0.58291,0.34727 0.979785,0.34727 z m 15.564942,-1.0418 c 0,-0.35553 -0.186035,-0.64079 -0.558105,-0.85576 -0.372071,-0.21497 -1.079004,-0.43822 -2.120801,-0.66973 -1.041797,-0.23151 -1.901693,-0.5333 -2.579688,-0.90537 -0.677995,-0.38034 -1.194759,-0.83923 -1.550293,-1.37666 -0.355533,-0.53743 -0.5333,-1.15342 -0.5333,-1.84795 0,-1.23197 0.508496,-2.24482 1.525488,-3.03857 1.016992,-0.802019 2.348177,-1.203029 3.993555,-1.203029 1.769401,0 3.191536,0.40101 4.266406,1.203029 1.074869,0.80202 1.612304,1.85622 1.612304,3.1626 h -4.191992 c 0,-1.07487 -0.566374,-1.61231 -1.699121,-1.61231 -0.438216,0 -0.806152,0.12402 -1.103808,0.37207 -0.297657,0.23978 -0.446485,0.54157 -0.446485,0.90537 0,0.37207 0.181901,0.67386 0.545703,0.90537 0.363802,0.23151 0.942578,0.42168 1.736328,0.57051 0.802019,0.14883 1.504818,0.32659 2.108399,0.5333 2.017448,0.69453 3.026172,1.9389 3.026172,3.73311 0,1.22369 -0.545703,2.22001 -1.63711,2.98896 -1.083138,0.76895 -2.488737,1.15342 -4.216796,1.15342 -1.149284,0 -2.174545,-0.20671 -3.075782,-0.62012 -0.901237,-0.41341 -1.604036,-0.97565 -2.108398,-1.68672 -0.504362,-0.71107 -0.756543,-1.45934 -0.756543,-2.24482 h 3.906738 c 0.01654,0.62012 0.223246,1.07487 0.620117,1.36426 0.396875,0.28112 0.905372,0.42168 1.525489,0.42168 0.570507,0 0.996321,-0.11576 1.277441,-0.34727 0.289388,-0.23151 0.434082,-0.5333 0.434082,-0.90537 z m 13.010055,0 c 0,-0.35553 -0.18603,-0.64079 -0.5581,-0.85576 -0.37207,-0.21497 -1.07901,-0.43822 -2.1208,-0.66973 -1.0418,-0.23151 -1.9017,-0.5333 -2.57969,-0.90537 -0.67799,-0.38034 -1.19476,-0.83923 -1.55029,-1.37666 -0.35553,-0.53743 -0.5333,-1.15342 -0.5333,-1.84795 0,-1.23197 0.5085,-2.24482 1.52549,-3.03857 1.01699,-0.802019 2.34817,-1.203029 3.99355,-1.203029 1.7694,0 3.19154,0.40101 4.26641,1.203029 1.07487,0.80202 1.6123,1.85622 1.6123,3.1626 h -4.19199 c 0,-1.07487 -0.56637,-1.61231 -1.69912,-1.61231 -0.43822,0 -0.80616,0.12402 -1.10381,0.37207 -0.29766,0.23978 -0.44649,0.54157 -0.44649,0.90537 0,0.37207 0.1819,0.67386 0.54571,0.90537 0.3638,0.23151 0.94258,0.42168 1.73633,0.57051 0.80201,0.14883 1.50481,0.32659 2.10839,0.5333 2.01745,0.69453 3.02618,1.9389 3.02618,3.73311 0,1.22369 -0.5457,2.22001 -1.63711,2.98896 -1.08314,0.76895 -2.48874,1.15342 -4.2168,1.15342 -1.14929,0 -2.17455,-0.20671 -3.07578,-0.62012 -0.90124,-0.41341 -1.60404,-0.97565 -2.1084,-1.68672 -0.50436,-0.71107 -0.75654,-1.45934 -0.75654,-2.24482 h 3.90674 c 0.0165,0.62012 0.22324,1.07487 0.62011,1.36426 0.39688,0.28112 0.90538,0.42168 1.52549,0.42168 0.57051,0 0.99632,-0.11576 1.27744,-0.34727 0.28939,-0.23151 0.43408,-0.5333 0.43408,-0.90537 z m 81.706658,-1.02939 c 0,-0.63665 -0.22738,-1.13275 -0.68213,-1.48828 -0.44649,-0.35554 -1.2361,-0.72348 -2.36885,-1.10381 -1.13275,-0.38034 -2.05879,-0.74828 -2.77812,-1.10381 -2.33991,-1.14929 -3.50987,-2.72852 -3.50987,-4.737697 0,-1.000456 0.28939,-1.8810215 0.86817,-2.6416985 0.58704,-0.768945 1.41386,-1.364258 2.48046,-1.785938 1.06661,-0.429948 2.2655,-0.644923 3.59668,-0.644923 1.29811,0 2.4598,0.231512 3.48506,0.694533 1.03353,0.463021 1.83555,1.124479 2.40606,1.984375 0.57051,0.851627 0.85576,1.8272765 0.85576,2.9269485 h -4.34082 c 0,-0.73587 -0.22738,-1.306377 -0.68213,-1.71152 -0.44649,-0.4051425 -1.0542,-0.6077145 -1.82314,-0.6077145 -0.77721,0 -1.3932,0.173633 -1.84795,0.520899 -0.44649,0.3389965 -0.66973,0.7730785 -0.66973,1.3022455 0,0.46302 0.24805,0.8847 0.74414,1.26504 0.49609,0.37207 1.36839,0.76067 2.61689,1.16582 1.24851,0.39687 2.27377,0.82682 3.07579,1.28984 1.9513,1.12448 2.92695,2.67477 2.92695,4.65088 0,1.57923 -0.59531,2.81947 -1.78594,3.7207 -1.19063,0.90124 -2.8236,1.35186 -4.89892,1.35186 -1.46348,0 -2.79053,-0.26045 -3.98116,-0.78135 -1.18235,-0.52917 -2.07532,-1.2485 -2.6789,-2.15801 -0.59531,-0.91777 -0.89297,-1.97197 -0.89297,-3.16259 h 4.36562 c 0,0.96738 0.24805,1.68258 0.74414,2.1456 0.50437,0.45475 1.31879,0.68213 2.44327,0.68213 0.71933,0 1.28571,-0.15296 1.69912,-0.45889 0.42168,-0.31419 0.63252,-0.7524 0.63252,-1.31464 z m 10.80243,4.7997 h -4.19199 V 11.040897 h 4.19199 z M 137.79004,7.5806435 c 0,-0.595313 0.21497,-1.083138 0.64492,-1.463478 0.42995,-0.3803375 0.98805,-0.5705065 1.67432,-0.5705065 0.68626,0 1.24436,0.190169 1.67431,0.5705065 0.42995,0.38034 0.64493,0.868165 0.64493,1.463478 0,0.595313 -0.21498,1.083138 -0.64493,1.463476 -0.42995,0.380339 -0.98805,0.570508 -1.67431,0.570508 -0.68627,0 -1.24437,-0.190169 -1.67432,-0.570508 -0.42995,-0.380338 -0.64492,-0.868163 -0.64492,-1.463476 z m 10.96368,3.4602535 0.13643,1.575102 c 0.95085,-1.215433 2.22829,-1.823149 3.83232,-1.823149 1.69499,0 2.84014,0.67386 3.43545,2.021579 0.90951,-1.347719 2.22416,-2.021579 3.94395,-2.021579 2.72025,0 4.11758,1.645379 4.19199,4.936129 v 8.73125 h -4.19199 v -8.4708 c 0,-0.68626 -0.11576,-1.18649 -0.34727,-1.50068 -0.23151,-0.31419 -0.65319,-0.47129 -1.26504,-0.47129 -0.82682,0 -1.4428,0.36794 -1.84795,1.10381 l 0.0124,0.17363 v 9.16533 h -4.19199 v -8.44599 c 0,-0.7028 -0.11162,-1.2113 -0.33486,-1.52549 -0.22325,-0.31419 -0.64906,-0.47129 -1.27744,-0.47129 -0.80202,0 -1.41387,0.36794 -1.83555,1.10381 v 9.33896 h -4.17959 V 11.040897 Z"
     id="path11"
     aria-label="PassengerSim" /></svg>
